<svg width="77" height="67" viewBox="0 0 77 67" fill="none" xmlns="http://www.w3.org/2000/svg">
<path fill-rule="evenodd" clip-rule="evenodd" d="M18.2959 66.8363H15.1086C9.38586 66.8363 6.52445 62.983 6.52445 55.2764V42.5493C6.52445 38.7339 5.11209 36.6017 2.28723 35.723H2.28703C1.02396 35.723 0 34.6912 0 33.4183C0 32.1455 1.02375 31.1138 2.28675 31.1136V31.1134C5.11188 30.2599 6.52445 28.0399 6.52445 24.174V11.4845C6.52445 3.82815 9.38586 0 15.1086 0H17.1525H18.2959H19.4395C20.7026 0 21.7266 1.03187 21.7266 2.30469C21.7266 3.57758 20.7026 4.60938 19.4395 4.60938H18.2959C13.7219 4.60938 11.4349 4.60938 11.4349 10.3711L11.5953 24.4376C11.5953 28.8808 10.0499 31.8555 6.95909 33.3617C10.0499 34.8929 11.5953 37.8801 11.5953 42.3234L11.4349 56.4651C11.4349 62.4694 13.4953 62.3903 16.7419 62.2655C16.8768 62.2607 17.0136 62.2553 17.1525 62.2505V62.2266H19.4395C20.7027 62.2266 21.7266 63.2585 21.7266 64.5318C21.7266 65.8044 20.7027 66.8363 19.4395 66.8363H18.2959Z" fill="#333333"/>
<path fill-rule="evenodd" clip-rule="evenodd" d="M58.1823 66.8363H61.3693C67.092 66.8363 69.9536 62.983 69.9536 55.2764V42.5493C69.9536 38.7339 71.3661 36.6017 74.1909 35.723C75.454 35.723 76.4784 34.6912 76.4784 33.4183C76.4784 32.1455 75.454 31.1138 74.1916 31.1136V31.1134C71.3661 30.2599 69.9536 28.0399 69.9536 24.174V11.4845C69.9536 3.82815 67.092 0 61.3693 0H59.3253H58.1823H57.0386C55.7755 0 54.7516 1.03187 54.7516 2.30469C54.7516 3.57758 55.7755 4.60938 57.0386 4.60938H58.1823C62.7565 4.60938 65.0432 4.60938 65.0432 10.3711L64.883 24.4376C64.883 28.8808 66.4284 31.8555 69.5192 33.3617C66.4284 34.8929 64.883 37.8801 64.883 42.3234L65.0432 56.4651C65.0432 62.4694 62.9829 62.3903 59.7359 62.2655C59.6015 62.2607 59.4644 62.2553 59.3253 62.2505V62.2266H57.0385C55.7754 62.2266 54.7515 63.2585 54.7515 64.5318C54.7515 65.8044 55.7754 66.8363 57.0385 66.8363H58.1823Z" fill="#333333"/>
<path d="M37.4938 13.041H19.5621C17.7614 13.041 16.3018 14.5007 16.3018 16.3013C16.3018 18.1019 17.7614 19.5616 19.5621 19.5616H37.4938C39.2944 19.5616 40.7541 18.1019 40.7541 16.3013C40.7541 14.5007 39.2944 13.041 37.4938 13.041Z" fill="#61B6FA"/>
<path d="M57.0557 13.041H45.6446C43.844 13.041 42.3843 14.5007 42.3843 16.3013C42.3843 18.1019 43.844 19.5616 45.6446 19.5616H57.0557C58.8563 19.5616 60.316 18.1019 60.316 16.3013C60.316 14.5007 58.8563 13.041 57.0557 13.041Z" fill="#53BFC0"/>
<path d="M29.343 24.4521H19.5621C17.7614 24.4521 16.3018 25.9118 16.3018 27.7125C16.3018 29.5131 17.7614 30.9728 19.5621 30.9728H29.343C31.1436 30.9728 32.6033 29.5131 32.6033 27.7125C32.6033 25.9118 31.1436 24.4521 29.343 24.4521Z" fill="#6EC3EC"/>
<path d="M29.343 47.2744H19.5621C17.7614 47.2744 16.3018 48.7341 16.3018 50.5347C16.3018 52.3353 17.7614 53.795 19.5621 53.795H29.343C31.1436 53.795 32.6033 52.3353 32.6033 50.5347C32.6033 48.7341 31.1436 47.2744 29.343 47.2744Z" fill="#E25352"/>
<path d="M57.0555 47.2744H37.4937C35.6931 47.2744 34.2334 48.7341 34.2334 50.5347C34.2334 52.3353 35.6931 53.795 37.4937 53.795H57.0555C58.8562 53.795 60.3158 52.3353 60.3158 50.5347C60.3158 48.7341 58.8562 47.2744 57.0555 47.2744Z" fill="#39A4FA"/>
<path d="M57.0555 24.4521H37.4937C35.6931 24.4521 34.2334 25.9118 34.2334 27.7125C34.2334 29.5131 35.6931 30.9728 37.4937 30.9728H57.0555C58.8562 30.9728 60.3158 29.5131 60.3158 27.7125C60.3158 25.9118 58.8562 24.4521 57.0555 24.4521Z" fill="#D883DA"/>
<path d="M57.0556 35.8633H19.5621C17.7614 35.8633 16.3018 37.323 16.3018 39.1236C16.3018 40.9242 17.7614 42.3839 19.5621 42.3839H57.0556C58.8562 42.3839 60.3159 40.9242 60.3159 39.1236C60.3159 37.323 58.8562 35.8633 57.0556 35.8633Z" fill="#FFBC37"/>
</svg>
