<svg width="308" height="61" viewBox="0 0 308 61" fill="none" xmlns="http://www.w3.org/2000/svg">
<path d="M7.91971 22.543C6.69502 22.543 5.43083 22.3257 4.12714 21.8912C2.84319 21.4369 1.67777 20.7356 0.630859 19.7875L3.53455 16.2912C4.2259 16.8443 4.96664 17.2986 5.75676 17.6542C6.56663 17.99 7.32712 18.1579 8.03822 18.1579C8.80859 18.1579 9.36167 18.0394 9.69747 17.8023C10.053 17.5653 10.2308 17.2295 10.2308 16.7949C10.2308 16.5579 10.1715 16.3603 10.053 16.2023C9.93451 16.0443 9.75673 15.8962 9.5197 15.7579C9.30241 15.6196 9.03575 15.4912 8.7197 15.3727C8.40365 15.2344 8.03822 15.0863 7.62341 14.9283L5.22343 13.9209C4.70985 13.7233 4.21602 13.4665 3.74195 13.1505C3.26788 12.8147 2.85307 12.4295 2.49752 11.9949C2.14196 11.5406 1.85554 11.027 1.63826 10.4542C1.44073 9.88137 1.34197 9.24928 1.34197 8.55792C1.34197 7.7283 1.51974 6.95793 1.8753 6.24683C2.23085 5.51597 2.72467 4.88387 3.35677 4.35054C3.98886 3.79746 4.73948 3.36289 5.60861 3.04685C6.49749 2.7308 7.46539 2.57277 8.5123 2.57277C9.61846 2.57277 10.7345 2.78018 11.8604 3.19499C13.0061 3.60981 14.0234 4.26165 14.9123 5.15054L12.3641 8.35052C11.7123 7.8962 11.0802 7.55052 10.4678 7.31349C9.87525 7.07645 9.2234 6.95793 8.5123 6.95793C7.8802 6.95793 7.38638 7.06658 7.03082 7.28386C6.67527 7.50114 6.49749 7.82706 6.49749 8.26163C6.49749 8.71595 6.7444 9.0715 7.23823 9.32829C7.75181 9.56533 8.45304 9.85174 9.34192 10.1875L11.6826 11.1061C12.8876 11.5801 13.816 12.2419 14.4678 13.0912C15.1197 13.9406 15.4456 15.0369 15.4456 16.3801C15.4456 17.19 15.2777 17.9702 14.9419 18.7208C14.6061 19.4714 14.1123 20.1332 13.4604 20.706C12.8283 21.2591 12.0481 21.7035 11.1197 22.0393C10.1913 22.3751 9.12464 22.543 7.91971 22.543Z" fill="#323232"/>
<path d="M18.1257 22.1875V7.37275H23.2219V22.1875H18.1257ZM20.6738 5.53572C19.8442 5.53572 19.1627 5.29868 18.6294 4.82461C18.096 4.35054 17.8294 3.7382 17.8294 2.98759C17.8294 2.23697 18.096 1.62463 18.6294 1.15056C19.1627 0.676488 19.8442 0.439453 20.6738 0.439453C21.5034 0.439453 22.1849 0.676488 22.7182 1.15056C23.2516 1.62463 23.5182 2.23697 23.5182 2.98759C23.5182 3.7382 23.2516 4.35054 22.7182 4.82461C22.1849 5.29868 21.5034 5.53572 20.6738 5.53572Z" fill="#323232"/>
<path d="M26.6615 22.1875V7.37275H30.8096L31.1652 9.15051H31.2837C31.8763 8.57768 32.5479 8.08385 33.2985 7.66904C34.0689 7.23448 34.9577 7.01719 35.9651 7.01719C37.5849 7.01719 38.7602 7.57028 39.4911 8.67644C40.2219 9.76286 40.5873 11.2246 40.5873 13.0616V22.1875H35.4911V13.7134C35.4911 12.7653 35.3726 12.1332 35.1355 11.8172C34.8985 11.5011 34.5232 11.3431 34.0096 11.3431C33.5355 11.3431 33.1405 11.4419 32.8244 11.6394C32.5084 11.8369 32.1528 12.1135 31.7578 12.469V22.1875H26.6615Z" fill="#323232"/>
<path d="M49.2993 28.2911C48.4499 28.2911 47.65 28.222 46.8993 28.0837C46.1487 27.9652 45.487 27.7578 44.9142 27.4615C44.3611 27.1652 43.9166 26.78 43.5808 26.306C43.245 25.8517 43.0771 25.2887 43.0771 24.6171C43.0771 23.4517 43.7685 22.5035 45.1512 21.7727V21.6541C44.7561 21.3776 44.4302 21.0418 44.1734 20.6467C43.9166 20.2517 43.7882 19.7381 43.7882 19.106C43.7882 18.5924 43.9364 18.0887 44.2327 17.5949C44.529 17.1011 44.9339 16.6764 45.4475 16.3208V16.2023C44.9142 15.8468 44.4401 15.3431 44.0253 14.6912C43.6302 14.0394 43.4327 13.2789 43.4327 12.4098C43.4327 11.5011 43.6105 10.711 43.966 10.0394C44.3216 9.34804 44.7957 8.78508 45.3882 8.35052C45.9808 7.8962 46.6524 7.5604 47.403 7.34312C48.1734 7.12583 48.9635 7.01719 49.7734 7.01719C50.6425 7.01719 51.4326 7.13571 52.1438 7.37275H57.6548V11.0468H55.5215C55.5808 11.2246 55.6301 11.4517 55.6697 11.7283C55.7289 12.0048 55.7585 12.2912 55.7585 12.5875C55.7585 13.4567 55.6005 14.2073 55.2845 14.8394C54.9684 15.4517 54.5437 15.9554 54.0104 16.3505C53.4771 16.7455 52.845 17.0418 52.1141 17.2394C51.3833 17.4171 50.603 17.506 49.7734 17.506C49.2796 17.506 48.7265 17.4369 48.1141 17.2986C47.9561 17.4369 47.8574 17.5653 47.8179 17.6838C47.7783 17.7826 47.7586 17.9406 47.7586 18.1579C47.7586 18.4937 47.9166 18.7307 48.2327 18.869C48.5487 18.9875 49.082 19.0468 49.8327 19.0468H52.0549C53.9116 19.0468 55.3437 19.3529 56.3511 19.9653C57.3783 20.5579 57.8919 21.5356 57.8919 22.8986C57.8919 23.7085 57.6845 24.4393 57.2696 25.0912C56.8746 25.7628 56.3018 26.3356 55.5511 26.8097C54.8203 27.2837 53.9215 27.6492 52.8549 27.906C51.808 28.1628 50.6228 28.2911 49.2993 28.2911ZM49.7734 14.4838C50.2475 14.4838 50.6327 14.3159 50.9289 13.9801C51.2252 13.6443 51.3734 13.1209 51.3734 12.4098C51.3734 11.7184 51.2252 11.2147 50.9289 10.8987C50.6327 10.5629 50.2475 10.395 49.7734 10.395C49.2993 10.395 48.9141 10.5629 48.6178 10.8987C48.3216 11.2147 48.1734 11.7184 48.1734 12.4098C48.1734 13.1209 48.3216 13.6443 48.6178 13.9801C48.9141 14.3159 49.2993 14.4838 49.7734 14.4838ZM50.1289 25.1504C50.9586 25.1504 51.6499 25.022 52.203 24.7652C52.7561 24.5282 53.0326 24.2023 53.0326 23.7875C53.0326 23.3924 52.8549 23.1455 52.4993 23.0467C52.1635 22.948 51.6796 22.8986 51.0475 22.8986H49.8919C49.2993 22.8986 48.845 22.8788 48.529 22.8393C48.2327 22.8196 47.9759 22.7801 47.7586 22.7208C47.5808 22.8986 47.4425 23.0665 47.3438 23.2245C47.2648 23.3825 47.2253 23.5702 47.2253 23.7875C47.2253 24.2615 47.4919 24.6072 48.0253 24.8245C48.5586 25.0418 49.2598 25.1504 50.1289 25.1504Z" fill="#323232"/>
<path d="M63.3546 22.543C62.6632 22.543 62.041 22.4245 61.4879 22.1875C60.9348 21.9307 60.4608 21.5949 60.0657 21.1801C59.6904 20.7653 59.404 20.2813 59.2064 19.7282C59.0089 19.1751 58.9102 18.5924 58.9102 17.9801C58.9102 16.4394 59.5422 15.2344 60.8064 14.3653C62.0706 13.4764 64.1249 12.8838 66.9694 12.5875C66.8508 11.5604 66.1595 11.0468 64.8953 11.0468C64.362 11.0468 63.799 11.1554 63.2064 11.3727C62.6138 11.5703 61.9324 11.8764 61.162 12.2912L59.3842 8.97274C60.4311 8.34064 61.4879 7.85669 62.5546 7.52089C63.6212 7.18509 64.7373 7.01719 65.9027 7.01719C67.8187 7.01719 69.32 7.57028 70.4064 8.67644C71.5125 9.76286 72.0656 11.5209 72.0656 13.9505V22.1875H67.9175L67.562 20.7653H67.4434C66.8508 21.2986 66.2188 21.7332 65.5471 22.069C64.8953 22.385 64.1644 22.543 63.3546 22.543ZM65.1323 18.6319C65.5471 18.6319 65.8829 18.5431 66.1397 18.3653C66.4163 18.1677 66.6928 17.9208 66.9694 17.6245V15.6097C65.7447 15.7875 64.9052 16.0542 64.4509 16.4097C63.9965 16.7653 63.7694 17.1505 63.7694 17.5653C63.7694 18.2764 64.2237 18.6319 65.1323 18.6319Z" fill="#323232"/>
<path d="M75.3881 27.4023V7.37275H79.5362L79.8917 8.7357H80.0103C80.5633 8.22212 81.1856 7.80731 81.8769 7.49126C82.5683 7.17522 83.2893 7.01719 84.0399 7.01719C84.909 7.01719 85.6991 7.19497 86.4102 7.55052C87.1213 7.90608 87.7238 8.40978 88.2176 9.06163C88.7312 9.71347 89.1164 10.5036 89.3732 11.432C89.6497 12.3604 89.788 13.3974 89.788 14.5431C89.788 15.827 89.6102 16.9628 89.2547 17.9505C88.9189 18.9381 88.4645 19.7776 87.8917 20.469C87.3189 21.1406 86.6571 21.6541 85.9065 22.0097C85.1757 22.3653 84.4152 22.543 83.6251 22.543C82.4004 22.543 81.2942 22.0492 80.3066 21.0616L80.4843 23.3134V27.4023H75.3881ZM82.3806 18.3949C82.9732 18.3949 83.4868 18.1184 83.9213 17.5653C84.3559 17.0122 84.5732 16.0245 84.5732 14.6023C84.5732 13.3776 84.3954 12.4986 84.0399 11.9653C83.7041 11.432 83.1905 11.1653 82.4991 11.1653C82.1041 11.1653 81.7485 11.2443 81.4325 11.4024C81.1362 11.5604 80.8201 11.8369 80.4843 12.232V17.6838C80.7806 17.9603 81.0868 18.148 81.4028 18.2468C81.7189 18.3455 82.0448 18.3949 82.3806 18.3949Z" fill="#323232"/>
<path d="M99.1532 22.543C98.2051 22.543 97.2866 22.3751 96.3977 22.0393C95.5088 21.6838 94.7187 21.1801 94.0273 20.5282C93.3557 19.8566 92.8125 19.0369 92.3977 18.069C92.0026 17.1011 91.8051 16.0048 91.8051 14.7801C91.8051 13.5554 92.0026 12.4591 92.3977 11.4912C92.8125 10.5233 93.3557 9.71347 94.0273 9.06163C94.7187 8.39002 95.5088 7.88632 96.3977 7.55052C97.2866 7.19497 98.2051 7.01719 99.1532 7.01719C100.101 7.01719 101.01 7.19497 101.879 7.55052C102.768 7.88632 103.548 8.39002 104.22 9.06163C104.911 9.71347 105.464 10.5233 105.879 11.4912C106.294 12.4591 106.501 13.5554 106.501 14.7801C106.501 16.0048 106.294 17.1011 105.879 18.069C105.464 19.0369 104.911 19.8566 104.22 20.5282C103.548 21.1801 102.768 21.6838 101.879 22.0393C101.01 22.3751 100.101 22.543 99.1532 22.543ZM99.1532 18.4542C99.9236 18.4542 100.467 18.1282 100.783 17.4764C101.119 16.8048 101.287 15.906 101.287 14.7801C101.287 13.6542 101.119 12.7653 100.783 12.1135C100.467 11.4419 99.9236 11.1061 99.1532 11.1061C98.3828 11.1061 97.8298 11.4419 97.494 12.1135C97.1779 12.7653 97.0199 13.6542 97.0199 14.7801C97.0199 15.906 97.1779 16.8048 97.494 17.4764C97.8298 18.1282 98.3828 18.4542 99.1532 18.4542Z" fill="#323232"/>
<path d="M109.155 22.1875V7.37275H113.303L113.659 9.92088H113.777C114.331 8.91348 114.982 8.18262 115.733 7.7283C116.503 7.25423 117.254 7.01719 117.985 7.01719C118.439 7.01719 118.805 7.04682 119.081 7.10608C119.358 7.14559 119.605 7.21472 119.822 7.31349L118.992 11.6986C118.716 11.6394 118.449 11.59 118.192 11.5505C117.955 11.4912 117.669 11.4616 117.333 11.4616C116.8 11.4616 116.237 11.6493 115.644 12.0246C115.071 12.3801 114.607 13.0221 114.252 13.9505V22.1875H109.155Z" fill="#323232"/>
<path d="M128.124 22.543C127.038 22.543 126.03 22.3751 125.102 22.0393C124.174 21.6838 123.364 21.1801 122.672 20.5282C122.001 19.8566 121.467 19.0369 121.072 18.069C120.677 17.1011 120.48 16.0048 120.48 14.7801C120.48 13.5752 120.677 12.4986 121.072 11.5505C121.487 10.5826 122.02 9.76286 122.672 9.09126C123.344 8.41965 124.104 7.90608 124.954 7.55052C125.803 7.19497 126.682 7.01719 127.591 7.01719C128.677 7.01719 129.625 7.20485 130.435 7.58015C131.245 7.95546 131.917 8.46904 132.45 9.12088C132.983 9.77273 133.378 10.5332 133.635 11.4024C133.912 12.2715 134.05 13.1999 134.05 14.1875C134.05 14.6418 134.02 15.0665 133.961 15.4616C133.922 15.8566 133.882 16.1431 133.843 16.3208H125.398C125.635 17.2097 126.06 17.8319 126.672 18.1875C127.285 18.5233 128.006 18.6912 128.835 18.6912C129.349 18.6912 129.843 18.6221 130.317 18.4838C130.811 18.3258 131.324 18.0986 131.857 17.8023L133.517 20.8245C132.707 21.3974 131.808 21.8319 130.82 22.1282C129.852 22.4048 128.954 22.543 128.124 22.543ZM125.339 13.0023H129.724C129.724 12.4295 129.576 11.9357 129.28 11.5209C129.003 11.0863 128.48 10.869 127.709 10.869C127.136 10.869 126.633 11.0369 126.198 11.3727C125.783 11.7085 125.497 12.2517 125.339 13.0023Z" fill="#323232"/>
<path d="M152.081 22.543C150.738 22.543 149.474 22.3455 148.289 21.9504C147.104 21.5356 146.067 20.9233 145.178 20.1134C144.309 19.2838 143.617 18.2566 143.104 17.0319C142.61 15.7875 142.363 14.3455 142.363 12.706C142.363 11.0863 142.62 9.65421 143.133 8.40978C143.647 7.14559 144.338 6.0888 145.207 5.23943C146.096 4.37029 147.123 3.70857 148.289 3.25425C149.454 2.79993 150.679 2.57277 151.963 2.57277C153.385 2.57277 154.61 2.82956 155.637 3.34314C156.684 3.83696 157.553 4.42955 158.244 5.12091L155.578 8.38015C155.104 7.96534 154.6 7.62954 154.067 7.37275C153.553 7.09621 152.911 6.95793 152.141 6.95793C151.489 6.95793 150.886 7.08633 150.333 7.34312C149.78 7.59991 149.296 7.96534 148.881 8.43941C148.467 8.91348 148.141 9.49619 147.904 10.1875C147.686 10.8789 147.578 11.6591 147.578 12.5283C147.578 14.3455 147.983 15.7381 148.792 16.706C149.602 17.6739 150.876 18.1579 152.615 18.1579C152.891 18.1579 153.158 18.1282 153.415 18.069C153.691 18.0097 153.918 17.9208 154.096 17.8023V15.1357H151.252V10.9875H158.6V20.1727C157.908 20.8245 156.99 21.3875 155.844 21.8616C154.699 22.3159 153.444 22.543 152.081 22.543Z" fill="#323232"/>
<path d="M168.51 22.543C167.562 22.543 166.644 22.3751 165.755 22.0393C164.866 21.6838 164.076 21.1801 163.385 20.5282C162.713 19.8566 162.17 19.0369 161.755 18.069C161.36 17.1011 161.162 16.0048 161.162 14.7801C161.162 13.5554 161.36 12.4591 161.755 11.4912C162.17 10.5233 162.713 9.71347 163.385 9.06163C164.076 8.39002 164.866 7.88632 165.755 7.55052C166.644 7.19497 167.562 7.01719 168.51 7.01719C169.459 7.01719 170.367 7.19497 171.236 7.55052C172.125 7.88632 172.905 8.39002 173.577 9.06163C174.268 9.71347 174.822 10.5233 175.236 11.4912C175.651 12.4591 175.859 13.5554 175.859 14.7801C175.859 16.0048 175.651 17.1011 175.236 18.069C174.822 19.0369 174.268 19.8566 173.577 20.5282C172.905 21.1801 172.125 21.6838 171.236 22.0393C170.367 22.3751 169.459 22.543 168.51 22.543ZM168.51 18.4542C169.281 18.4542 169.824 18.1282 170.14 17.4764C170.476 16.8048 170.644 15.906 170.644 14.7801C170.644 13.6542 170.476 12.7653 170.14 12.1135C169.824 11.4419 169.281 11.1061 168.51 11.1061C167.74 11.1061 167.187 11.4419 166.851 12.1135C166.535 12.7653 166.377 13.6542 166.377 14.7801C166.377 15.906 166.535 16.8048 166.851 17.4764C167.187 18.1282 167.74 18.4542 168.51 18.4542Z" fill="#323232"/>
<path d="M181.719 22.1875L176.86 7.37275H181.956L183.556 13.832C183.912 15.3134 184.268 16.8542 184.623 18.4542H184.742C185.097 16.8542 185.453 15.3134 185.808 13.832L187.408 7.37275H192.267L187.586 22.1875H181.719Z" fill="#323232"/>
<path d="M200.925 22.543C199.838 22.543 198.831 22.3751 197.902 22.0393C196.974 21.6838 196.164 21.1801 195.473 20.5282C194.801 19.8566 194.268 19.0369 193.873 18.069C193.478 17.1011 193.28 16.0048 193.28 14.7801C193.28 13.5752 193.478 12.4986 193.873 11.5505C194.288 10.5826 194.821 9.76286 195.473 9.09126C196.144 8.41965 196.905 7.90608 197.754 7.55052C198.604 7.19497 199.483 7.01719 200.391 7.01719C201.478 7.01719 202.426 7.20485 203.236 7.58015C204.046 7.95546 204.717 8.46904 205.251 9.12088C205.784 9.77273 206.179 10.5332 206.436 11.4024C206.712 12.2715 206.85 13.1999 206.85 14.1875C206.85 14.6418 206.821 15.0665 206.762 15.4616C206.722 15.8566 206.683 16.1431 206.643 16.3208H198.199C198.436 17.2097 198.86 17.8319 199.473 18.1875C200.085 18.5233 200.806 18.6912 201.636 18.6912C202.149 18.6912 202.643 18.6221 203.117 18.4838C203.611 18.3258 204.125 18.0986 204.658 17.8023L206.317 20.8245C205.507 21.3974 204.609 21.8319 203.621 22.1282C202.653 22.4048 201.754 22.543 200.925 22.543ZM198.139 13.0023H202.525C202.525 12.4295 202.376 11.9357 202.08 11.5209C201.804 11.0863 201.28 10.869 200.51 10.869C199.937 10.869 199.433 11.0369 198.999 11.3727C198.584 11.7085 198.297 12.2517 198.139 13.0023Z" fill="#323232"/>
<path d="M209.647 22.1875V7.37275H213.795L214.15 9.92088H214.269C214.822 8.91348 215.474 8.18262 216.224 7.7283C216.995 7.25423 217.745 7.01719 218.476 7.01719C218.93 7.01719 219.296 7.04682 219.572 7.10608C219.849 7.14559 220.096 7.21472 220.313 7.31349L219.484 11.6986C219.207 11.6394 218.94 11.59 218.684 11.5505C218.446 11.4912 218.16 11.4616 217.824 11.4616C217.291 11.4616 216.728 11.6493 216.135 12.0246C215.563 12.3801 215.098 13.0221 214.743 13.9505V22.1875H209.647Z" fill="#323232"/>
<path d="M222.031 22.1875V7.37275H226.179L226.534 9.15051H226.653C227.246 8.57768 227.917 8.08385 228.668 7.66904C229.438 7.23448 230.327 7.01719 231.334 7.01719C232.954 7.01719 234.129 7.57028 234.86 8.67644C235.591 9.76286 235.957 11.2246 235.957 13.0616V22.1875H230.86V13.7134C230.86 12.7653 230.742 12.1332 230.505 11.8172C230.268 11.5011 229.892 11.3431 229.379 11.3431C228.905 11.3431 228.51 11.4419 228.194 11.6394C227.878 11.8369 227.522 12.1135 227.127 12.469V22.1875H222.031Z" fill="#323232"/>
<path d="M239.276 22.1875V7.37275H243.424L243.78 9.18014H243.898C244.491 8.60731 245.123 8.10361 245.794 7.66904C246.486 7.23448 247.335 7.01719 248.343 7.01719C249.35 7.01719 250.18 7.2246 250.831 7.63941C251.503 8.03447 252.036 8.61718 252.431 9.38755C253.044 8.75546 253.706 8.20237 254.417 7.7283C255.128 7.25423 255.987 7.01719 256.994 7.01719C258.614 7.01719 259.799 7.57028 260.55 8.67644C261.301 9.76286 261.676 11.2246 261.676 13.0616V22.1875H256.58V13.7134C256.58 12.7653 256.461 12.1332 256.224 11.8172C255.987 11.5011 255.612 11.3431 255.098 11.3431C254.466 11.3431 253.775 11.7184 253.024 12.469V22.1875H247.928V13.7134C247.928 12.7653 247.809 12.1332 247.572 11.8172C247.335 11.5011 246.96 11.3431 246.446 11.3431C245.814 11.3431 245.123 11.7184 244.372 12.469V22.1875H239.276Z" fill="#323232"/>
<path d="M271.873 22.543C270.787 22.543 269.779 22.3751 268.851 22.0393C267.923 21.6838 267.113 21.1801 266.421 20.5282C265.75 19.8566 265.217 19.0369 264.821 18.069C264.426 17.1011 264.229 16.0048 264.229 14.7801C264.229 13.5752 264.426 12.4986 264.821 11.5505C265.236 10.5826 265.77 9.76286 266.421 9.09126C267.093 8.41965 267.854 7.90608 268.703 7.55052C269.552 7.19497 270.431 7.01719 271.34 7.01719C272.426 7.01719 273.374 7.20485 274.184 7.58015C274.994 7.95546 275.666 8.46904 276.199 9.12088C276.733 9.77273 277.128 10.5332 277.384 11.4024C277.661 12.2715 277.799 13.1999 277.799 14.1875C277.799 14.6418 277.77 15.0665 277.71 15.4616C277.671 15.8566 277.631 16.1431 277.592 16.3208H269.147C269.384 17.2097 269.809 17.8319 270.421 18.1875C271.034 18.5233 271.755 18.6912 272.584 18.6912C273.098 18.6912 273.592 18.6221 274.066 18.4838C274.56 18.3258 275.073 18.0986 275.607 17.8023L277.266 20.8245C276.456 21.3974 275.557 21.8319 274.57 22.1282C273.602 22.4048 272.703 22.543 271.873 22.543ZM269.088 13.0023H273.473C273.473 12.4295 273.325 11.9357 273.029 11.5209C272.752 11.0863 272.229 10.869 271.458 10.869C270.886 10.869 270.382 11.0369 269.947 11.3727C269.533 11.7085 269.246 12.2517 269.088 13.0023Z" fill="#323232"/>
<path d="M280.595 22.1875V7.37275H284.743L285.099 9.15051H285.217C285.81 8.57768 286.482 8.08385 287.232 7.66904C288.003 7.23448 288.891 7.01719 289.899 7.01719C291.519 7.01719 292.694 7.57028 293.425 8.67644C294.156 9.76286 294.521 11.2246 294.521 13.0616V22.1875H289.425V13.7134C289.425 12.7653 289.306 12.1332 289.069 11.8172C288.832 11.5011 288.457 11.3431 287.943 11.3431C287.469 11.3431 287.074 11.4419 286.758 11.6394C286.442 11.8369 286.087 12.1135 285.691 12.469V22.1875H280.595Z" fill="#323232"/>
<path d="M303.944 22.543C302.976 22.543 302.147 22.4048 301.455 22.1282C300.784 21.8319 300.221 21.4171 299.766 20.8838C299.332 20.3504 299.006 19.7184 298.789 18.9875C298.591 18.2369 298.492 17.4073 298.492 16.4986V11.3431H296.537V7.55052L298.789 7.37275L299.381 3.52092H303.589V7.37275H306.966V11.3431H303.589V16.4097C303.589 17.2394 303.766 17.8122 304.122 18.1282C304.477 18.4245 304.892 18.5727 305.366 18.5727C305.603 18.5727 305.831 18.5529 306.048 18.5134C306.285 18.4542 306.492 18.3949 306.67 18.3356L307.44 22.0097C307.045 22.1282 306.571 22.2467 306.018 22.3653C305.465 22.4838 304.774 22.543 303.944 22.543Z" fill="#323232"/>
<path d="M1.81604 55.1091V35.8499H7.50489C8.96661 35.8499 10.2999 36.0277 11.5049 36.3833C12.7296 36.7388 13.7765 37.3018 14.6456 38.0722C15.5147 38.8425 16.1863 39.8302 16.6604 41.0351C17.1542 42.24 17.4011 43.6919 17.4011 45.3906C17.4011 47.0894 17.1641 48.5511 16.69 49.7758C16.216 51.0005 15.5444 52.0079 14.6752 52.798C13.8258 53.5881 12.8086 54.1708 11.6234 54.5461C10.458 54.9214 9.1839 55.1091 7.80119 55.1091H1.81604ZM6.9123 51.0202H7.2086C7.89995 51.0202 8.5518 50.9412 9.16414 50.7832C9.77649 50.6054 10.2999 50.3091 10.7345 49.8943C11.1888 49.4795 11.5444 48.9067 11.8012 48.1758C12.058 47.4449 12.1863 46.5166 12.1863 45.3906C12.1863 44.2647 12.058 43.3462 11.8012 42.6351C11.5444 41.924 11.1888 41.3709 10.7345 40.9758C10.2999 40.5808 9.77649 40.3141 9.16414 40.1758C8.5518 40.0178 7.89995 39.9388 7.2086 39.9388H6.9123V51.0202Z" fill="#323232"/>
<path d="M27.2856 55.4646C26.1992 55.4646 25.1917 55.2967 24.2634 54.9609C23.335 54.6054 22.5251 54.1017 21.8337 53.4498C21.1621 52.7782 20.6288 51.9585 20.2338 50.9906C19.8387 50.0227 19.6412 48.9264 19.6412 47.7017C19.6412 46.4968 19.8387 45.4203 20.2338 44.4721C20.6486 43.5042 21.1819 42.6845 21.8337 42.0129C22.5053 41.3413 23.2658 40.8277 24.1152 40.4721C24.9646 40.1166 25.8436 39.9388 26.7522 39.9388C27.8386 39.9388 28.7868 40.1265 29.5967 40.5018C30.4065 40.8771 31.0781 41.3907 31.6115 42.0425C32.1448 42.6944 32.5399 43.4548 32.7966 44.324C33.0732 45.1931 33.2115 46.1215 33.2115 47.1091C33.2115 47.5635 33.1818 47.9881 33.1226 48.3832C33.0831 48.7783 33.0436 49.0647 33.0041 49.2425H24.5597C24.7967 50.1313 25.2214 50.7536 25.8337 51.1091C26.4461 51.4449 27.167 51.6128 27.9967 51.6128C28.5103 51.6128 29.0041 51.5437 29.4781 51.4054C29.972 51.2474 30.4855 51.0202 31.0189 50.7239L32.6781 53.7461C31.8683 54.319 30.9695 54.7535 29.9818 55.0498C29.014 55.3264 28.1152 55.4646 27.2856 55.4646ZM24.5004 45.924H28.8856C28.8856 45.3511 28.7374 44.8573 28.4411 44.4425C28.1646 44.0079 27.6411 43.7906 26.8708 43.7906C26.2979 43.7906 25.7942 43.9585 25.3597 44.2943C24.9448 44.6301 24.6584 45.1733 24.5004 45.924Z" fill="#323232"/>
<path d="M39.2144 55.1091L34.3552 40.2944H39.4515L41.0515 46.7536C41.407 48.2351 41.7626 49.7758 42.1181 51.3758H42.2366C42.5922 49.7758 42.9477 48.2351 43.3033 46.7536L44.9033 40.2944H49.7625L45.0811 55.1091H39.2144Z" fill="#323232"/>
<path d="M58.4196 55.4646C57.3332 55.4646 56.3258 55.2967 55.3974 54.9609C54.469 54.6054 53.6592 54.1017 52.9678 53.4498C52.2962 52.7782 51.7629 51.9585 51.3678 50.9906C50.9728 50.0227 50.7752 48.9264 50.7752 47.7017C50.7752 46.4968 50.9728 45.4203 51.3678 44.4721C51.7826 43.5042 52.316 42.6845 52.9678 42.0129C53.6394 41.3413 54.3999 40.8277 55.2493 40.4721C56.0987 40.1166 56.9777 39.9388 57.8863 39.9388C58.9727 39.9388 59.9209 40.1265 60.7307 40.5018C61.5406 40.8771 62.2122 41.3907 62.7455 42.0425C63.2789 42.6944 63.6739 43.4548 63.9307 44.324C64.2073 45.1931 64.3455 46.1215 64.3455 47.1091C64.3455 47.5635 64.3159 47.9881 64.2566 48.3832C64.2171 48.7783 64.1776 49.0647 64.1381 49.2425H55.6937C55.9308 50.1313 56.3555 50.7536 56.9678 51.1091C57.5801 51.4449 58.3011 51.6128 59.1308 51.6128C59.6443 51.6128 60.1382 51.5437 60.6122 51.4054C61.1061 51.2474 61.6196 51.0202 62.153 50.7239L63.8122 53.7461C63.0023 54.319 62.1036 54.7535 61.1159 55.0498C60.148 55.3264 59.2493 55.4646 58.4196 55.4646ZM55.6345 45.924H60.0196C60.0196 45.3511 59.8715 44.8573 59.5752 44.4425C59.2987 44.0079 58.7752 43.7906 58.0048 43.7906C57.432 43.7906 56.9283 43.9585 56.4937 44.2943C56.0789 44.6301 55.7925 45.1733 55.6345 45.924Z" fill="#323232"/>
<path d="M71.7045 55.4646C70.8354 55.4646 70.1045 55.3363 69.5119 55.0795C68.9391 54.8029 68.4749 54.4177 68.1194 53.9239C67.7638 53.4301 67.507 52.8474 67.349 52.1758C67.2107 51.4844 67.1416 50.7239 67.1416 49.8943V34.487H72.2378V50.0721C72.2378 50.5857 72.3267 50.9313 72.5045 51.1091C72.702 51.2869 72.8897 51.3758 73.0675 51.3758C73.1662 51.3758 73.2452 51.3758 73.3045 51.3758C73.3835 51.3758 73.4823 51.356 73.6008 51.3165L74.1934 55.0498C73.9169 55.1684 73.5712 55.2671 73.1564 55.3461C72.7613 55.4251 72.2774 55.4646 71.7045 55.4646Z" fill="#323232"/>
<path d="M82.5445 55.4646C81.5964 55.4646 80.6778 55.2967 79.789 54.9609C78.9001 54.6054 78.11 54.1017 77.4186 53.4498C76.747 52.7782 76.2038 51.9585 75.789 50.9906C75.3939 50.0227 75.1964 48.9264 75.1964 47.7017C75.1964 46.477 75.3939 45.3808 75.789 44.4129C76.2038 43.445 76.747 42.6351 77.4186 41.9832C78.11 41.3116 78.9001 40.8079 79.789 40.4721C80.6778 40.1166 81.5964 39.9388 82.5445 39.9388C83.4926 39.9388 84.4013 40.1166 85.2704 40.4721C86.1593 40.8079 86.9395 41.3116 87.6111 41.9832C88.3025 42.6351 88.8556 43.445 89.2704 44.4129C89.6852 45.3808 89.8926 46.477 89.8926 47.7017C89.8926 48.9264 89.6852 50.0227 89.2704 50.9906C88.8556 51.9585 88.3025 52.7782 87.6111 53.4498C86.9395 54.1017 86.1593 54.6054 85.2704 54.9609C84.4013 55.2967 83.4926 55.4646 82.5445 55.4646ZM82.5445 51.3758C83.3149 51.3758 83.8581 51.0499 84.1741 50.398C84.5099 49.7264 84.6778 48.8276 84.6778 47.7017C84.6778 46.5758 84.5099 45.6869 84.1741 45.0351C83.8581 44.3635 83.3149 44.0277 82.5445 44.0277C81.7741 44.0277 81.2211 44.3635 80.8853 45.0351C80.5692 45.6869 80.4112 46.5758 80.4112 47.7017C80.4112 48.8276 80.5692 49.7264 80.8853 50.398C81.2211 51.0499 81.7741 51.3758 82.5445 51.3758Z" fill="#323232"/>
<path d="M92.5465 60.3239V40.2944H96.6946L97.0502 41.6573H97.1687C97.7218 41.1437 98.344 40.7289 99.0354 40.4129C99.7267 40.0968 100.448 39.9388 101.198 39.9388C102.067 39.9388 102.858 40.1166 103.569 40.4721C104.28 40.8277 104.882 41.3314 105.376 41.9832C105.89 42.6351 106.275 43.4252 106.532 44.3536C106.808 45.282 106.946 46.319 106.946 47.4647C106.946 48.7486 106.769 49.8844 106.413 50.8721C106.077 51.8597 105.623 52.6992 105.05 53.3906C104.477 54.0622 103.816 54.5758 103.065 54.9313C102.334 55.2869 101.574 55.4646 100.784 55.4646C99.5588 55.4646 98.4527 54.9708 97.465 53.9832L97.6428 56.235V60.3239H92.5465ZM99.5391 51.3165C100.132 51.3165 100.645 51.04 101.08 50.4869C101.514 49.9338 101.732 48.9462 101.732 47.524C101.732 46.2993 101.554 45.4203 101.198 44.8869C100.863 44.3536 100.349 44.0869 99.6576 44.0869C99.2625 44.0869 98.907 44.1659 98.5909 44.324C98.2946 44.482 97.9786 44.7585 97.6428 45.1536V50.6054C97.9391 50.882 98.2453 51.0696 98.5613 51.1684C98.8774 51.2671 99.2033 51.3165 99.5391 51.3165Z" fill="#323232"/>
<path d="M116.608 55.4646C115.522 55.4646 114.514 55.2967 113.586 54.9609C112.657 54.6054 111.847 54.1017 111.156 53.4498C110.485 52.7782 109.951 51.9585 109.556 50.9906C109.161 50.0227 108.964 48.9264 108.964 47.7017C108.964 46.4968 109.161 45.4203 109.556 44.4721C109.971 43.5042 110.504 42.6845 111.156 42.0129C111.828 41.3413 112.588 40.8277 113.438 40.4721C114.287 40.1166 115.166 39.9388 116.075 39.9388C117.161 39.9388 118.109 40.1265 118.919 40.5018C119.729 40.8771 120.401 41.3907 120.934 42.0425C121.467 42.6944 121.862 43.4548 122.119 44.324C122.396 45.1931 122.534 46.1215 122.534 47.1091C122.534 47.5635 122.504 47.9881 122.445 48.3832C122.405 48.7783 122.366 49.0647 122.326 49.2425H113.882C114.119 50.1313 114.544 50.7536 115.156 51.1091C115.768 51.4449 116.489 51.6128 117.319 51.6128C117.833 51.6128 118.326 51.5437 118.801 51.4054C119.294 51.2474 119.808 51.0202 120.341 50.7239L122.001 53.7461C121.191 54.319 120.292 54.7535 119.304 55.0498C118.336 55.3264 117.438 55.4646 116.608 55.4646ZM113.823 45.924H118.208C118.208 45.3511 118.06 44.8573 117.764 44.4425C117.487 44.0079 116.964 43.7906 116.193 43.7906C115.62 43.7906 115.117 43.9585 114.682 44.2943C114.267 44.6301 113.981 45.1733 113.823 45.924Z" fill="#323232"/>
<path d="M125.33 55.1091V40.2944H129.478L129.834 42.8425H129.952C130.505 41.8351 131.157 41.1042 131.908 40.6499C132.678 40.1758 133.429 39.9388 134.159 39.9388C134.614 39.9388 134.979 39.9684 135.256 40.0277C135.532 40.0672 135.779 40.1363 135.997 40.2351L135.167 44.6203C134.89 44.561 134.624 44.5116 134.367 44.4721C134.13 44.4129 133.843 44.3832 133.508 44.3832C132.974 44.3832 132.411 44.5709 131.819 44.9462C131.246 45.3017 130.782 45.9437 130.426 46.8721V55.1091H125.33Z" fill="#323232"/>
<path d="M144.061 55.1091V35.8499H151.112C152.159 35.8499 153.157 35.9586 154.105 36.1759C155.053 36.3734 155.883 36.729 156.594 37.2425C157.305 37.7364 157.868 38.3981 158.283 39.2277C158.717 40.0376 158.935 41.045 158.935 42.2499C158.935 43.4351 158.717 44.4524 158.283 45.3017C157.868 46.1511 157.305 46.8524 156.594 47.4054C155.883 47.9388 155.063 48.3437 154.135 48.6202C153.206 48.877 152.238 49.0054 151.231 49.0054H149.157V55.1091H144.061ZM149.157 44.9758H150.994C152.001 44.9758 152.742 44.7388 153.216 44.2647C153.71 43.7906 153.957 43.119 153.957 42.2499C153.957 41.3808 153.69 40.7684 153.157 40.4129C152.624 40.0573 151.863 39.8796 150.875 39.8796H149.157V44.9758Z" fill="#323232"/>
<path d="M167.671 55.4646C166.723 55.4646 165.805 55.2967 164.916 54.9609C164.027 54.6054 163.237 54.1017 162.545 53.4498C161.874 52.7782 161.331 51.9585 160.916 50.9906C160.521 50.0227 160.323 48.9264 160.323 47.7017C160.323 46.477 160.521 45.3808 160.916 44.4129C161.331 43.445 161.874 42.6351 162.545 41.9832C163.237 41.3116 164.027 40.8079 164.916 40.4721C165.805 40.1166 166.723 39.9388 167.671 39.9388C168.619 39.9388 169.528 40.1166 170.397 40.4721C171.286 40.8079 172.066 41.3116 172.738 41.9832C173.429 42.6351 173.982 43.445 174.397 44.4129C174.812 45.3808 175.019 46.477 175.019 47.7017C175.019 48.9264 174.812 50.0227 174.397 50.9906C173.982 51.9585 173.429 52.7782 172.738 53.4498C172.066 54.1017 171.286 54.6054 170.397 54.9609C169.528 55.2967 168.619 55.4646 167.671 55.4646ZM167.671 51.3758C168.442 51.3758 168.985 51.0499 169.301 50.398C169.637 49.7264 169.805 48.8276 169.805 47.7017C169.805 46.5758 169.637 45.6869 169.301 45.0351C168.985 44.3635 168.442 44.0277 167.671 44.0277C166.901 44.0277 166.348 44.3635 166.012 45.0351C165.696 45.6869 165.538 46.5758 165.538 47.7017C165.538 48.8276 165.696 49.7264 166.012 50.398C166.348 51.0499 166.901 51.3758 167.671 51.3758Z" fill="#323232"/>
<path d="M177.673 55.1091V40.2944H181.821L182.177 42.8425H182.296C182.849 41.8351 183.5 41.1042 184.251 40.6499C185.021 40.1758 185.772 39.9388 186.503 39.9388C186.957 39.9388 187.323 39.9684 187.599 40.0277C187.876 40.0672 188.123 40.1363 188.34 40.2351L187.51 44.6203C187.234 44.561 186.967 44.5116 186.71 44.4721C186.473 44.4129 186.187 44.3832 185.851 44.3832C185.318 44.3832 184.755 44.5709 184.162 44.9462C183.589 45.3017 183.125 45.9437 182.77 46.8721V55.1091H177.673Z" fill="#323232"/>
<path d="M196.161 55.4646C195.193 55.4646 194.364 55.3264 193.672 55.0498C193.001 54.7535 192.438 54.3387 191.983 53.8054C191.549 53.2721 191.223 52.64 191.006 51.9091C190.808 51.1585 190.709 50.3289 190.709 49.4202V44.2647H188.754V40.4721L191.006 40.2944L191.598 36.4425H195.806V40.2944H199.183V44.2647H195.806V49.3314C195.806 50.161 195.983 50.7338 196.339 51.0499C196.695 51.3462 197.109 51.4943 197.583 51.4943C197.82 51.4943 198.048 51.4745 198.265 51.435C198.502 51.3758 198.709 51.3165 198.887 51.2573L199.657 54.9313C199.262 55.0498 198.788 55.1684 198.235 55.2869C197.682 55.4054 196.991 55.4646 196.161 55.4646Z" fill="#323232"/>
<path d="M205.194 55.4646C204.503 55.4646 203.88 55.3461 203.327 55.1091C202.774 54.8523 202.3 54.5165 201.905 54.1017C201.53 53.6869 201.243 53.2029 201.046 52.6498C200.848 52.0968 200.75 51.5141 200.75 50.9017C200.75 49.361 201.382 48.156 202.646 47.2869C203.91 46.398 205.964 45.8054 208.809 45.5091C208.69 44.482 207.999 43.9684 206.735 43.9684C206.201 43.9684 205.638 44.0771 205.046 44.2943C204.453 44.4919 203.772 44.798 203.001 45.2129L201.224 41.8944C202.271 41.2623 203.327 40.7783 204.394 40.4425C205.461 40.1067 206.577 39.9388 207.742 39.9388C209.658 39.9388 211.159 40.4919 212.246 41.5981C213.352 42.6845 213.905 44.4425 213.905 46.8721V55.1091H209.757L209.401 53.6869H209.283C208.69 54.2202 208.058 54.6548 207.387 54.9906C206.735 55.3066 206.004 55.4646 205.194 55.4646ZM206.972 51.5536C207.387 51.5536 207.722 51.4647 207.979 51.2869C208.256 51.0894 208.532 50.8425 208.809 50.5462V48.5313C207.584 48.7091 206.745 48.9758 206.29 49.3314C205.836 49.6869 205.609 50.0721 205.609 50.4869C205.609 51.198 206.063 51.5536 206.972 51.5536Z" fill="#323232"/>
<path d="M221.79 55.4646C220.921 55.4646 220.19 55.3363 219.598 55.0795C219.025 54.8029 218.561 54.4177 218.205 53.9239C217.85 53.4301 217.593 52.8474 217.435 52.1758C217.297 51.4844 217.228 50.7239 217.228 49.8943V34.487H222.324V50.0721C222.324 50.5857 222.413 50.9313 222.59 51.1091C222.788 51.2869 222.976 51.3758 223.153 51.3758C223.252 51.3758 223.331 51.3758 223.39 51.3758C223.469 51.3758 223.568 51.356 223.687 51.3165L224.279 55.0498C224.003 55.1684 223.657 55.2671 223.242 55.3461C222.847 55.4251 222.363 55.4646 221.79 55.4646Z" fill="#323232"/>
</svg>
